#N canvas 242 402 744 330 10;
#X obj 26 17 cnv 15 600 200 empty empty empty 20 12 0 14 -191407 -66577
0;
#N canvas 0 135 733 689 kick 1;
#X obj 220 366 osc~;
#X obj 209 113 t b b;
#X obj 220 336 line~;
#X obj 209 169 del 50;
#X obj 280 92 nbx 5 14 -1e+37 1e+37 0 1 empty kick_fall_time_1 empty
0 -8 0 10 -262144 -1 -1 28.5039 256;
#X obj 274 43 nbx 5 14 -1e+37 1e+37 0 0 empty kick_break_pitch empty
0 -8 0 10 -262144 -1 -1 68.5039 256;
#X obj 320 146 nbx 5 14 -1e+37 1e+37 0 1 empty kick_max_pitch empty
0 -8 0 10 -262144 -1 -1 193.071 256;
#X obj 259 248 pack;
#X msg 259 273 \$1 \$2;
#X text 267 24 break pitch;
#X text 320 125 max pitch;
#X msg 305 273 \$1 0;
#X obj 305 248 pack;
#X text 281 73 fall time 1;
#X obj 119 48 nbx 5 14 -1e+37 1e+37 0 0 empty kick_fall_time_2 empty
0 -8 0 10 -262144 -1 -1 1962.36 256;
#X text 111 25 fall time 2;
#X msg 209 273 0 \$1;
#X obj 209 248 pack;
#X obj 209 70 bng 15 250 50 0 empty kick_bang empty 17 7 0 10 -262144
-1 -1;
#X msg 112 267 0 0;
#X obj 112 207 loadbang;
#X obj 112 236 del 2;
#X obj 209 222 f;
#X obj 305 207 f;
#X obj 259 182 f;
#X obj 373 218 t b b;
#X obj 306 439 *~;
#X obj 368 478 dac~;
#X msg 418 313 1 2;
#X obj 373 290 pack;
#X obj 373 268 f;
#X msg 373 313 0 \$1;
#X obj 373 246 del 2;
#X obj 388 164 nbx 5 14 50 8000 0 1 empty kick_amp_decay empty 0 -8
0 10 -262144 -1 -1 287.756 256;
#X text 388 143 amp decay;
#X obj 225 143 del 1;
#X obj 451 220 t b b;
#X obj 451 292 pack;
#X obj 451 270 f;
#X msg 451 315 0 \$1;
#X obj 451 248 del 2;
#X obj 373 395 expr~ $v1 > 0.5;
#X obj 442 443 *~;
#X obj 466 187 * 0.05;
#X obj 496 291 pack;
#X obj 496 269 f;
#X obj 511 173 nbx 5 14 0 1 0 1 empty kick_transient empty 0 -8 0 10
-262144 -1 -1 0.148819 256;
#X text 511 152 transient;
#X msg 496 315 \$1 2;
#X obj 411 420 lop~ 350;
#X obj 451 366 line~;
#X obj 373 364 line~;
#X obj 332 404 *~;
#X connect 0 0 41 0;
#X connect 0 0 26 0;
#X connect 1 0 3 0;
#X connect 1 0 35 0;
#X connect 1 1 23 0;
#X connect 2 0 0 0;
#X connect 3 0 22 0;
#X connect 4 0 3 1;
#X connect 4 0 7 1;
#X connect 5 0 24 1;
#X connect 6 0 23 1;
#X connect 7 0 8 0;
#X connect 8 0 2 0;
#X connect 11 0 2 0;
#X connect 12 0 11 0;
#X connect 14 0 22 1;
#X connect 16 0 2 0;
#X connect 17 0 16 0;
#X connect 18 0 1 0;
#X connect 18 0 25 0;
#X connect 18 0 36 0;
#X connect 19 0 2 0;
#X connect 20 0 21 0;
#X connect 21 0 19 0;
#X connect 22 0 17 0;
#X connect 23 0 12 0;
#X connect 24 0 7 0;
#X connect 25 0 32 0;
#X connect 25 1 28 0;
#X connect 26 0 27 1;
#X connect 26 0 27 0;
#X connect 28 0 51 0;
#X connect 29 0 31 0;
#X connect 30 0 29 0;
#X connect 31 0 51 0;
#X connect 32 0 30 0;
#X connect 33 0 30 1;
#X connect 33 0 43 0;
#X connect 35 0 24 0;
#X connect 36 0 40 0;
#X connect 36 1 45 0;
#X connect 37 0 39 0;
#X connect 38 0 37 0;
#X connect 39 0 50 0;
#X connect 40 0 38 0;
#X connect 41 0 49 0;
#X connect 42 0 27 1;
#X connect 42 0 27 0;
#X connect 43 0 38 1;
#X connect 44 0 48 0;
#X connect 45 0 44 0;
#X connect 46 0 45 1;
#X connect 48 0 50 0;
#X connect 49 0 42 0;
#X connect 50 0 42 1;
#X connect 51 0 52 1;
#X connect 51 0 52 0;
#X connect 52 0 26 1;
#X restore 549 189 pd kick;
#X obj 519 42 bng 80 250 50 0 kick_bang empty KICK 15 37 0 22 -258113
-1 -1;
#X obj 222 35 vsl 15 128 2 200 0 1 kick_fall_time_1 empty empty 0 -9
0 10 -262144 -1 -1 1700 1;
#X obj 300 35 vsl 15 128 35 150 0 1 kick_break_pitch empty empty 0
-9 0 10 -262144 -1 -1 3700 1;
#X obj 378 35 vsl 15 128 5 3000 0 1 kick_fall_time_2 empty empty 0
-9 0 10 -262144 -1 -1 8300 1;
#X obj 144 35 vsl 15 128 40 400 0 1 kick_max_pitch empty empty 0 -9
0 10 -262144 -1 -1 5400 1;
#X text 124 167 Max Pitch;
#X text 278 167 Break Pitch;
#X text 356 167 Fall Time 2;
#X text 197 167 Fall Time 1;
#X obj 456 35 vsl 15 128 5 2000 0 1 kick_amp_decay empty empty 0 -9
0 10 -262144 -1 -1 1800 1;
#X text 437 167 Amp Decay;
#X obj 67 35 vsl 15 128 0 0.9 0 1 kick_transient empty empty 0 -9 0
10 -262144 -1 -1 2100 1;
#X text 47 167 Transient;
#X obj 677 34 bng 15 250 50 0 empty empty empty 17 7 0 10 -262144 -1
-1;
#X obj 698 15 inlet;
#X connect 15 0 2 0;
#X connect 16 0 15 0;
