#N canvas 50 37 1120 606 10;
#X obj 142 -18 dumpOSC 12001;
#X obj 145 226 efficient-kick;
#X obj 330 561 dac~;
#X msg 145 196 1;
#X obj 291 253 efficient-snare;
#X msg 286 198 1;
#X obj 494 250 efficient-fmhh;
#X msg 462 204 1;
#X msg 524 204 2;
#X obj 143 147 bng 15 250 50 0 empty empty empty 17 7 0 10 -262144
-1 -1;
#X obj 167 148 bng 15 250 50 0 empty empty empty 17 7 0 10 -262144
-1 -1;
#X obj 451 164 bng 15 250 50 0 empty empty empty 17 7 0 10 -262144
-1 -1;
#X obj 516 163 bng 15 250 50 0 empty empty empty 17 7 0 10 -262144
-1 -1;
#X obj 464 126 bng 15 250 50 0 empty empty empty 17 7 0 10 -262144
-1 -1;
#X obj 262 101 OSCroute /snare;
#X obj 143 98 OSCroute /kick;
#X obj 386 100 OSCroute /fm;
#X obj 502 101 OSCroute /mh;
#X obj 21 209 kicka;
#X obj 10 151 bng 15 250 50 0 empty empty empty 17 7 0 10 -262144 -1
-1;
#X obj 9 97 OSCroute /kicka;
#X obj 645 157 bng 15 250 50 0 empty empty empty 17 7 0 10 -262144
-1 -1;
#X obj 622 102 OSCroute /fmsnare;
#X obj 648 213 FMsnare;
#X obj 780 159 bng 15 250 50 0 empty empty empty 17 7 0 10 -262144
-1 -1;
#X obj 757 104 OSCroute /tom;
#X obj 775 211 tom;
#X obj 340 521 *~ 0.6;
#X connect 0 0 14 0;
#X connect 0 0 15 0;
#X connect 0 0 16 0;
#X connect 0 0 17 0;
#X connect 0 0 20 0;
#X connect 0 0 22 0;
#X connect 0 0 25 0;
#X connect 1 0 27 0;
#X connect 3 0 1 0;
#X connect 4 0 27 0;
#X connect 5 0 4 0;
#X connect 6 0 27 0;
#X connect 7 0 6 0;
#X connect 8 0 6 0;
#X connect 9 0 3 0;
#X connect 10 0 5 0;
#X connect 11 0 7 0;
#X connect 12 0 8 0;
#X connect 13 0 11 0;
#X connect 13 0 12 0;
#X connect 14 0 10 0;
#X connect 15 0 9 0;
#X connect 16 0 11 0;
#X connect 17 0 12 0;
#X connect 19 0 18 0;
#X connect 20 0 19 0;
#X connect 21 0 23 0;
#X connect 22 0 21 0;
#X connect 24 0 26 0;
#X connect 25 0 24 0;
#X connect 27 0 2 0;
#X connect 27 0 2 1;
